<svg width="28" height="28" viewBox="0 0 28 28" fill="none" xmlns="http://www.w3.org/2000/svg">
<circle cx="14" cy="14" r="14" fill="#FFF8C0" fill-opacity="0.7"/>
<path d="M18.18 13.24C18.7133 13.24 19.0933 13.2933 19.32 13.4C19.56 13.4933 19.68 13.6733 19.68 13.94C19.68 14.3 19.1 14.6667 17.94 15.04C17.9667 16.0533 17.98 17.0267 17.98 17.96C17.98 18.88 17.9067 19.5733 17.76 20.04C17.6133 20.4933 17.38 20.72 17.06 20.72C16.74 20.72 16.4867 20.56 16.3 20.24C16.1267 19.9067 15.98 19.3667 15.86 18.62C15.7533 17.8733 15.64 16.8867 15.52 15.66C14.16 15.9667 13.18 16.2133 12.58 16.4C11.54 19.28 10.8467 20.72 10.5 20.72C10.22 20.72 9.84667 20.5333 9.38 20.16C8.92667 19.7867 8.7 19.4 8.7 19C8.7 18.7733 8.96 18.0667 9.48 16.88C9.25333 16.7333 9.05333 16.5267 8.88 16.26C8.72 15.98 8.64 15.7133 8.64 15.46C8.64 15.02 9.3 14.6 10.62 14.2C10.7267 13.9333 10.8333 13.6333 10.94 13.3C11.06 12.9533 11.3467 12.1533 11.8 10.9C12.2667 9.64667 12.6333 8.6 12.9 7.76C13.02 7.36 13.4333 6.98667 14.14 6.64C14.86 6.29333 15.42 6.12 15.82 6.12C16.2867 6.12 16.7 6.76667 17.06 8.06C17.4333 9.35333 17.6933 11.08 17.84 13.24H18.18ZM13.56 13.58C13.96 13.5267 14.54 13.46 15.3 13.38C15.26 12.9933 15.1933 12.3333 15.1 11.4C15.02 10.4667 14.96 9.79333 14.92 9.38C14.6933 10.1267 14.24 11.5267 13.56 13.58Z" fill="#C93B17"/>
<g clip-path="url(#clip0_613_15)">
<path d="M14 28C21.732 28 28 21.732 28 14C28 6.26801 21.732 0 14 0C6.26801 0 0 6.26801 0 14C0 21.732 6.26801 28 14 28Z" fill="#FEFBE2"/>
<path d="M21.4185 12.7288C22.3363 12.7288 22.9903 12.8091 23.3804 12.9699C23.7935 13.1105 24 13.3817 24 13.7836C24 14.326 23.0018 14.8786 21.0054 15.4411C21.0514 16.968 21.0743 18.4348 21.0743 19.8411C21.0743 21.2274 20.9481 22.2721 20.6957 22.9753C20.4432 23.6584 20.0417 24 19.4909 24C18.9402 24 18.5043 23.7589 18.183 23.2767C17.8847 22.7745 17.6322 21.9608 17.4257 20.8356C17.2421 19.7105 17.0471 18.2238 16.8406 16.3753C14.5 16.8375 12.8134 17.2091 11.7808 17.4904C9.99094 21.8301 8.79776 24 8.20109 24C7.7192 24 7.0767 23.7187 6.27355 23.1562C5.49336 22.5937 5.10326 22.011 5.10326 21.4082C5.10326 21.0666 5.55072 20.0019 6.44565 18.2137C6.05555 17.9926 5.71135 17.6813 5.41304 17.2795C5.13768 16.8575 5 16.4557 5 16.074C5 15.411 6.13587 14.7781 8.40761 14.1753C8.59124 13.7735 8.7747 13.3214 8.95833 12.8192C9.16485 12.2968 9.65827 11.0913 10.4384 9.20274C11.2416 7.31416 11.8725 5.73699 12.3315 4.47123C12.538 3.86849 13.2493 3.30594 14.4656 2.78356C15.7047 2.26118 16.6685 2 17.3569 2C18.1601 2 18.8714 2.97444 19.4909 4.92329C20.1334 6.87214 20.5809 9.47397 20.8333 12.7288H21.4185ZM13.4674 13.2411C14.1558 13.1608 15.154 13.0603 16.462 12.9397C16.3931 12.357 16.2783 11.3625 16.1178 9.95616C15.9801 8.54982 15.8768 7.53516 15.808 6.91233C15.4178 8.03749 14.6377 10.1471 13.4674 13.2411Z" fill="#C93B17"/>
</g>
<defs>
<clipPath id="clip0_613_15">
<rect width="28" height="28" fill="white"/>
</clipPath>
</defs>
</svg>
